<?xml version="1.0" encoding="UTF-8"?>
<svg version="1.1" xmlns="http://www.w3.org/2000/svg" viewBox="0 0 512 512">
<path d="M0 0 C1.87059553 -0.00323058 3.74119083 -0.00659583 5.61178589 -0.01008606 C9.51284365 -0.01602387 13.41387946 -0.0179318 17.31494141 -0.01733398 C21.24142104 -0.0172532 25.16778282 -0.02412901 29.09423828 -0.0378418 C52.85402414 -0.11946606 76.42896778 0.19785453 100.1171875 2.16796875 C101.54837921 2.28505692 101.54837921 2.28505692 103.00848389 2.4045105 C108.42807985 2.85839808 113.83591161 3.38978781 119.2421875 3.98046875 C120.01894836 4.06378448 120.79570923 4.14710022 121.5960083 4.23294067 C154.19160444 7.75708909 186.04899242 12.18906286 213.1171875 32.16796875 C213.66439453 32.56854492 214.21160156 32.96912109 214.77539062 33.38183594 C246.29985364 56.64312235 267.13724734 89.36203554 273.04394531 128.3046875 C273.23614385 129.65478926 273.42719047 131.00505542 273.6171875 132.35546875 C273.71946655 133.06219727 273.82174561 133.76892578 273.92712402 134.49707031 C275.80015905 147.5141245 277.15458343 160.57461632 278.3671875 173.66796875 C278.45009033 174.56059418 278.53299316 175.4532196 278.6184082 176.37289429 C278.85774562 178.9812211 279.09065743 181.59002276 279.3203125 184.19921875 C279.41998322 185.30889763 279.41998322 185.30889763 279.52166748 186.44099426 C280.8001164 201.42659792 281.28361777 216.37653213 281.3203125 231.41015625 C281.32750298 233.21658356 281.33477325 235.02301056 281.34211731 236.82943726 C281.5641288 300.88063885 281.5641288 300.88063885 280.32580566 322.81158447 C280.23077597 324.50667765 280.14784042 326.20250697 280.07897949 327.89886475 C279.51386399 340.85348707 275.29551266 350.85256787 269.1171875 362.16796875 C268.33879517 363.60946289 268.33879517 363.60946289 267.54467773 365.08007812 C266.35112697 367.19131073 265.10621967 369.24696018 263.8046875 371.29296875 C263.35158203 372.0190332 262.89847656 372.74509766 262.43164062 373.49316406 C254.13440496 386.63139974 244.93117555 399.12823823 235.1171875 411.16796875 C234.68615723 411.6980957 234.25512695 412.22822266 233.81103516 412.77441406 C219.00167475 430.88401901 202.64387748 447.83283759 184.1171875 462.16796875 C183.40820312 462.71710938 182.69921875 463.26625 181.96875 463.83203125 C160.38790031 480.45989904 137.47591217 494.92724943 113.1171875 507.16796875 C112.36695313 507.54695313 111.61671875 507.9259375 110.84375 508.31640625 C106.59371822 509.64378007 102.29139845 509.87812508 97.8671875 510.23046875 C96.98289062 510.30845703 96.09859375 510.38644531 95.1875 510.46679688 C79.96392839 511.76401671 64.82441309 512.32951415 49.55078125 512.3359375 C47.70117673 512.33916756 45.85157243 512.34253278 44.00196838 512.34602356 C40.14201265 512.35196515 36.28207912 512.35386894 32.42211914 512.35327148 C28.53730561 512.35319075 24.65261133 512.36005706 20.76782227 512.3737793 C-2.8681785 512.45590893 -26.31780874 512.12358083 -49.8828125 510.16796875 C-51.3149559 510.05088058 -51.3149559 510.05088058 -52.77603149 509.931427 C-58.19496422 509.47755843 -63.60229193 508.94705503 -69.0078125 508.35546875 C-69.78623505 508.27148834 -70.56465759 508.18750793 -71.3666687 508.10098267 C-114.37585097 503.42012735 -149.88026817 494.71585197 -181.8828125 464.16796875 C-182.52992188 463.58402344 -183.17703125 463.00007813 -183.84375 462.3984375 C-208.31827213 439.4723035 -219.51628159 407.80012808 -223.9453125 375.41796875 C-224.13666275 374.05200562 -224.13666275 374.05200562 -224.33187866 372.65844727 C-228.56297485 342.38742593 -231.02014961 311.98687882 -231.0859375 281.41796875 C-231.08876488 280.50500031 -231.09159225 279.59203186 -231.09450531 278.65139771 C-231.10937762 273.79835745 -231.11867647 268.94534587 -231.12304688 264.09228516 C-231.12738343 260.18561212 -231.14110335 256.27916594 -231.1640625 252.37255859 C-231.38826458 213.39231215 -229.19513041 174.79831935 -223.8828125 136.16796875 C-223.73231445 135.06420898 -223.58181641 133.96044922 -223.42675781 132.82324219 C-218.7735545 99.88102803 -205.84355827 73.22208337 -182.8828125 49.16796875 C-182.29886719 48.52085938 -181.71492188 47.87375 -181.11328125 47.20703125 C-158.18714725 22.73250912 -126.51497183 11.53449966 -94.1328125 7.10546875 C-92.76684937 6.9141185 -92.76684937 6.9141185 -91.37329102 6.71890259 C-61.05634334 2.4813871 -30.61571994 0.01275218 0 0 Z " fill="#FBA84C" transform="translate(230.8828125,-0.16796875)"/>
<path d="M0 0 C35.26250403 4.38131313 63.07748221 16.60497893 89 41 C89.65097656 41.58652344 90.30195313 42.17304687 90.97265625 42.77734375 C113.86755169 64.26187603 126.20385702 94.65245089 130.5 125.1875 C130.60227905 125.89422852 130.70455811 126.60095703 130.80993652 127.32910156 C132.68297155 140.34615575 134.03739593 153.40664757 135.25 166.5 C135.33290283 167.39262543 135.41580566 168.28525085 135.5012207 169.20492554 C135.74055812 171.81325235 135.97346993 174.42205401 136.203125 177.03125 C136.30279572 178.14092888 136.30279572 178.14092888 136.40447998 179.27302551 C137.6829289 194.25862917 138.16643027 209.20856338 138.203125 224.2421875 C138.21031548 226.04861481 138.21758575 227.85504181 138.22492981 229.66146851 C138.4469413 293.7126701 138.4469413 293.7126701 137.20861816 315.64361572 C137.11358847 317.3387089 137.03065292 319.03453822 136.96179199 320.730896 C136.39667649 333.68551832 132.17832516 343.68459912 126 355 C125.22160767 356.44149414 125.22160767 356.44149414 124.42749023 357.91210938 C123.23393947 360.02334198 121.98903217 362.07899143 120.6875 364.125 C120.23439453 364.85106445 119.78128906 365.57712891 119.31445312 366.32519531 C111.01721746 379.46343099 101.81398805 391.96026948 92 404 C91.56896973 404.53012695 91.13793945 405.06025391 90.69384766 405.60644531 C75.88448725 423.71605026 59.52668998 440.66486884 41 455 C40.29101562 455.54914063 39.58203125 456.09828125 38.8515625 456.6640625 C17.27071281 473.29193029 -5.64127533 487.75928068 -30 500 C-30.75023437 500.37898438 -31.50046875 500.75796875 -32.2734375 501.1484375 C-36.52346928 502.47581132 -40.82578905 502.71015633 -45.25 503.0625 C-46.13429688 503.14048828 -47.01859375 503.21847656 -47.9296875 503.29882812 C-63.15325911 504.59604796 -78.29277441 505.1615454 -93.56640625 505.16796875 C-95.41601077 505.17119881 -97.26561507 505.17456403 -99.11521912 505.17805481 C-102.97517485 505.1839964 -106.83510838 505.18590019 -110.69506836 505.18530273 C-114.57988189 505.185222 -118.46457617 505.19208831 -122.34936523 505.20581055 C-145.985366 505.28794018 -169.43499624 504.95561208 -193 503 C-194.4321434 502.88291183 -194.4321434 502.88291183 -195.89321899 502.76345825 C-201.31215172 502.30958968 -206.71947943 501.77908628 -212.125 501.1875 C-212.90342255 501.10351959 -213.68184509 501.01953918 -214.4838562 500.93301392 C-257.49303847 496.2521586 -292.99745567 487.54788322 -325 457 C-325.64710938 456.41605469 -326.29421875 455.83210938 -326.9609375 455.23046875 C-348.29486789 435.246236 -362.84586833 404.88520577 -366 376 C-366.01170652 374.00003426 -366.01311221 371.99995702 -366 370 C-364.90667358 370.41511841 -364.90667358 370.41511841 -363.79125977 370.83862305 C-316.4972093 388.73638728 -266.67348794 398.87996426 -216 391 C-215.00726074 390.84934082 -214.01452148 390.69868164 -212.99169922 390.54345703 C-145.64775506 379.99658688 -80.2138686 345.40353221 -38 291 C-29.33551938 280.05309748 -29.33551938 280.05309748 -25.6875 277.3125 C-21.40990435 273.63177816 -19.81483098 269.01695817 -17.734375 263.8671875 C-16.08028464 260.00199095 -14.04286932 256.39178524 -11.9777832 252.73364258 C-0.31403422 232.03321504 7.85939694 210.61016851 15 188 C15.94609131 187.94884033 16.89218262 187.89768066 17.86694336 187.8449707 C19.11612549 187.76851318 20.36530762 187.69205566 21.65234375 187.61328125 C22.88718506 187.54149658 24.12202637 187.46971191 25.39428711 187.39575195 C32.22144893 186.64642368 39.27329782 184.14376413 44 179 C47.78131112 172.92244714 48.9647341 167.08256007 48 160 C46.09859145 153.99555195 43.3487011 148.75834807 37.6640625 145.7734375 C33.11888721 143.87620217 28.86379681 142.77541216 24 142 C24.0314209 140.28961548 24.0314209 140.28961548 24.06347656 138.54467773 C24.4623282 114.6599831 24.16953089 91.57859517 20 68 C19.81276367 66.92282715 19.62552734 65.8456543 19.43261719 64.73583984 C15.76543447 44.23065151 9.96084017 24.57997762 1.50390625 5.54296875 C0 2 0 2 0 0 Z " fill="#F8973E" transform="translate(374,7)"/>
<path d="M0 0 C-7.30050863 22.70598965 -23.10874003 43.66023772 -38 62 C-38.75539063 62.94617188 -39.51078125 63.89234375 -40.2890625 64.8671875 C-45.31953952 71.10774491 -50.59430288 77.08416259 -56 83 C-56.81984375 83.92425781 -57.6396875 84.84851563 -58.484375 85.80078125 C-68.99889152 97.54406523 -80.51553783 108.36668535 -93 118 C-93.70753418 118.54769043 -94.41506836 119.09538086 -95.14404297 119.65966797 C-117.24096844 136.68620693 -143.17291639 156.3523648 -170 165 C-170.14088666 142.50437476 -169.84994642 120.0176464 -169.42493439 97.52632141 C-169.3243532 92.20059588 -169.23137117 86.8749792 -169.15625 81.54882812 C-169.08213178 76.30192791 -168.9894711 71.05565369 -168.88387299 65.80929565 C-168.8472108 63.83847855 -168.81684336 61.86753251 -168.79331207 59.89651489 C-168.58241355 42.90375383 -166.62318132 28.72442566 -154.78125 15.52734375 C-146.73464263 7.70280185 -136.37958763 2.13633676 -125.03588867 1.70336914 C-124.03971024 1.66432968 -123.0435318 1.62529022 -122.01716614 1.58506775 C-120.39025093 1.52942406 -120.39025093 1.52942406 -118.73046875 1.47265625 C-117.58482956 1.43133072 -116.43919037 1.39000519 -115.25883484 1.34742737 C-101.64488463 0.88212159 -88.02640968 0.66133789 -74.40638351 0.46757126 C-72.28296212 0.43707579 -70.15956204 0.40535554 -68.03616333 0.37332153 C-45.35700142 0.03281394 -22.68181884 -0.14123175 0 0 Z " fill="#DD6F1D" transform="translate(508,344)"/>
<path d="M0 0 C1.46445819 -0.01041829 1.46445819 -0.01041829 2.9585014 -0.02104706 C6.22119008 -0.03930418 9.48315061 -0.02905601 12.74586487 -0.01878357 C15.08857263 -0.02584266 17.43127582 -0.03458763 19.77397156 -0.04489136 C26.13140418 -0.06739585 32.48858797 -0.06444302 38.84604526 -0.05556989 C44.82606204 -0.04981381 50.80605008 -0.05950222 56.78605951 -0.06785773 C69.3529801 -0.08442539 81.91978832 -0.07572594 94.48670215 -0.05887216 C105.9752018 -0.04417701 117.46343987 -0.05880266 128.95190584 -0.08764232 C140.75856417 -0.11705921 152.56510187 -0.12800189 164.37179524 -0.11846012 C170.99625165 -0.11339125 177.62054315 -0.11575106 184.24497795 -0.13624763 C190.4741342 -0.1545985 196.70280426 -0.1486525 202.93193436 -0.12404823 C205.21679631 -0.11903864 207.50169528 -0.12253384 209.78652763 -0.13519669 C212.908374 -0.15112841 216.02861959 -0.13617376 219.15039062 -0.11352539 C220.0522497 -0.12536112 220.95410877 -0.13719685 221.88329691 -0.14939123 C229.17417277 -0.04210191 234.10007003 2.41838782 239.19728088 7.61231995 C239.65231995 8.26071838 240.10735901 8.90911682 240.57618713 9.5771637 C241.04927307 10.22814026 241.52235901 10.87911682 242.00978088 11.54981995 C244.8187547 16.43879513 244.70949033 22.03173722 244.13868713 27.5146637 C242.00688981 35.23786086 238.24398789 38.96451993 231.54981804 43.12282562 C227.06166024 44.95412119 223.23610259 44.93739358 218.43559265 44.90907288 C217.46422517 44.91516398 216.49285768 44.92125508 215.49205482 44.92753077 C212.24019461 44.94416733 208.98872568 44.93938392 205.73683167 44.93458557 C203.40412489 44.9419255 201.07142175 44.95051151 198.73872375 44.96025085 C192.40400107 44.98248348 186.06940839 44.98539664 179.73465204 44.98350334 C174.44631476 44.98338372 169.15800512 44.99194443 163.86967552 45.00028086 C150.67999962 45.02106116 137.49039298 45.02166273 124.30070649 45.01447374 C112.85418205 45.00889903 101.40788147 45.0297221 89.96140935 45.0628342 C78.19999242 45.09659253 66.43868268 45.11173688 54.67721641 45.10711718 C48.07731173 45.10504871 41.47763 45.11054441 34.87776566 45.13500977 C28.67079969 45.15725826 22.46429987 45.15541422 16.25733185 45.13508224 C13.98052738 45.1316689 11.70369165 45.13677514 9.42692947 45.15106583 C6.3159921 45.16924361 3.20663856 45.15651891 0.0957489 45.13612366 C-1.25222647 45.15490043 -1.25222647 45.15490043 -2.62743366 45.17405653 C-9.90410756 45.07194549 -14.55990008 42.52290083 -19.88475037 37.6709137 C-24.58326508 31.91319624 -26.34559847 27.5981587 -26.17771912 20.0771637 C-25.37176234 13.54990879 -21.83260682 8.67667724 -16.86131287 4.5146637 C-11.10448663 0.53711639 -6.91293415 -0.06301131 0 0 Z " fill="#FEFEFE" transform="translate(178.86131286621094,149.48533630371094)"/>
<path d="M0 0 C0.67508616 -0.00453111 1.35017232 -0.00906223 2.04571563 -0.01373065 C4.30095845 -0.02635994 6.55595932 -0.02475524 8.81123352 -0.02310181 C10.43119618 -0.02908813 12.05115599 -0.03589392 13.67111206 -0.04345703 C18.06805668 -0.06111728 22.46492343 -0.06581252 26.86190009 -0.0670886 C29.61168522 -0.06851116 32.36145062 -0.07278282 35.11123085 -0.07808304 C44.71241637 -0.09658595 54.31354639 -0.10475364 63.91474915 -0.10317993 C72.85054925 -0.10197963 81.78610738 -0.12305942 90.72184628 -0.15466726 C98.40357999 -0.18086653 106.08523488 -0.19154564 113.76701289 -0.19026911 C118.35043488 -0.1897604 122.93364197 -0.19539302 127.51701927 -0.21662521 C131.83206966 -0.2360683 136.14670157 -0.23609086 140.4617672 -0.22159195 C142.039496 -0.21951 143.61725141 -0.22416794 145.19493484 -0.23631287 C164.01753571 -0.37174313 164.01753571 -0.37174313 171.05886364 5.97548866 C172.61271132 7.65452203 173.89505451 9.36607621 175.16401672 11.26742554 C176.09214172 12.62867554 176.09214172 12.62867554 177.03901672 14.01742554 C179.1391885 20.08458845 179.26792155 26.56894963 176.66401672 32.51742554 C172.85394872 39.08371295 167.40634703 43.23628067 160.16401672 45.26742554 C156.82435799 45.52469444 156.82435799 45.52469444 153.11839294 45.53485107 C152.43287413 45.53938219 151.74735531 45.5439133 151.04106319 45.54858172 C148.75662003 45.56118636 146.47241647 45.55960794 144.1879425 45.55795288 C142.54488317 45.56394056 140.90182665 45.57074666 139.2587738 45.57830811 C134.80417346 45.59594995 130.34965 45.60066269 125.8950181 45.60193968 C123.10989873 45.60336275 120.32479882 45.60763527 117.5396843 45.61293411 C107.81760673 45.63142766 98.09558395 45.63960548 88.37348938 45.63803101 C79.32004641 45.63682946 70.26684179 45.65793613 61.21345913 45.68951833 C53.43237443 45.71569214 45.65136752 45.72639785 37.87023914 45.72512019 C33.22653434 45.72461092 28.58304148 45.73027456 23.93938065 45.75147629 C19.57097426 45.77087758 15.2029816 45.77097033 10.83456039 45.75644302 C9.23502751 45.75435624 7.63546859 45.75904809 6.03598022 45.77116394 C-3.21512062 45.83667894 -10.39454388 45.75741482 -17.82426453 39.62680054 C-22.49414706 33.95130908 -25.60018023 27.9845944 -25.24223328 20.40805054 C-23.83165582 12.97539242 -20.02702378 7.67411492 -13.89848328 3.42367554 C-9.16618313 0.7707194 -5.44025497 0.01511262 0 0 Z " fill="#FEFDFC" transform="translate(177.8359832763672,245.73257446289063)"/>
<path d="M0 0 C4.93174506 3.75385059 8.56276026 8.15838463 9.75 14.33203125 C10.5272227 21.15668536 10.08573373 26.43796804 6.37890625 32.3203125 C2.80503129 36.73409093 -1.56248011 40.34381153 -7.25 41.33203125 C-14.19753869 42.02678512 -19.82066345 42.07105749 -25.5703125 37.8125 C-31.8682777 32.26150276 -34.69414664 26.6398948 -35.75 18.45703125 C-35.46034474 12.32599493 -32.62765849 6.6626074 -28.27734375 2.3984375 C-20.27920098 -3.83562892 -9.01854585 -5.31718432 0 0 Z " fill="#FEFDFC" transform="translate(123.25,152.66796875)"/>
<path d="M0 0 C5.9510154 2.70921713 9.99081298 7.31756346 12.8828125 13.1015625 C14.54696335 21.75514691 14.17926277 27.82536784 9.15234375 35.25390625 C5.6041359 39.77976757 2.1117174 42.08275384 -3.4921875 43.3515625 C-9.84751689 43.96039237 -15.95000378 43.78955613 -21.4921875 40.3515625 C-27.87933852 34.77242456 -30.91990498 28.78675205 -31.9921875 20.4765625 C-31.70228341 14.34025921 -28.88333002 8.61468974 -24.44921875 4.41796875 C-16.99407565 -1.24468092 -9.27519558 -2.4132954 0 0 Z " fill="#FEFEFC" transform="translate(119.4921875,247.6484375)"/>
</svg>
